<svg xmlns="http://www.w3.org/2000/svg" width="75" height="75" viewBox="0 0 75 75">
  <g id="Group_84" data-name="Group 84" transform="translate(-139 -637)">
    <rect id="Rectangle_32" data-name="Rectangle 32" width="75" height="75" rx="37.5" transform="translate(139 637)" fill="#d61b27"/>
    <path id="Icon_material-devices" data-name="Icon material-devices" d="M6,9H33V6H6A3.009,3.009,0,0,0,3,9V25.5H0V30H21V25.5H6Zm28.5,3h-9A1.5,1.5,0,0,0,24,13.5v15A1.5,1.5,0,0,0,25.5,30h9A1.5,1.5,0,0,0,36,28.5v-15A1.5,1.5,0,0,0,34.5,12ZM33,25.5H27V15h6Z" transform="translate(159 657)" fill="#fff"/>
  </g>
</svg>
